<svg width="231" height="80" viewBox="0 0 231 80" fill="none" xmlns="http://www.w3.org/2000/svg">
<g clip-path="url(#clip0_1593_42736)">
<path d="M174.891 79.2493C195.387 79.2493 212.001 62.6346 212.001 42.1393C212.001 21.644 195.387 5.0293 174.891 5.0293C154.396 5.0293 137.781 21.644 137.781 42.1393C137.781 62.6346 154.396 79.2493 174.891 79.2493Z" fill="#008F34"/>
<path fill-rule="evenodd" clip-rule="evenodd" d="M185.941 28.0499C181.901 30.2299 176.141 29.6399 175.071 24.0099C175.071 23.9699 175.061 23.9299 175.051 23.8799C174.601 20.8899 175.661 18.4099 175.881 17.9199L174.431 20.7399L172.041 18.2899L174.571 14.9799L171.201 17.4199C164.271 21.0199 158.781 7.00986 167.491 9.14986C168.151 -1.93014 179.301 -0.290141 180.871 3.97986C186.231 -0.930141 193.851 7.05986 186.571 11.9699C191.031 21.4599 192.321 24.0799 185.931 28.0399L185.941 28.0499Z" fill="#F4D3AE"/>
<path fill-rule="evenodd" clip-rule="evenodd" d="M222.372 8.07031C217.492 16.3003 232.862 17.6403 224.272 23.2403C226.172 17.5503 211.342 15.1303 222.372 8.07031Z" fill="#008F34"/>
<path fill-rule="evenodd" clip-rule="evenodd" d="M217.04 7.42969C210.44 16.8497 228.34 20.8097 219.75 26.4097C221.65 20.7197 202.12 16.6597 217.04 7.42969Z" fill="#008F34"/>
<path fill-rule="evenodd" clip-rule="evenodd" d="M210.173 10.25C205.293 18.48 220.663 19.82 212.073 25.42C213.973 19.73 199.143 17.31 210.173 10.25Z" fill="#008F34"/>
<path fill-rule="evenodd" clip-rule="evenodd" d="M211.801 58.1996C210.371 66.1396 201.781 67.5296 196.701 72.2796C188.231 51.3896 168.741 71.1896 154.751 70.6396C148.931 70.7296 147.411 68.0996 144.361 66.5496C141.161 67.4696 142.951 74.5796 139.661 75.4496C131.751 71.6796 134.411 67.0896 137.491 64.5496C140.841 62.1696 144.271 61.2196 147.721 61.1096L146.691 63.7296C147.731 62.3796 148.381 61.3596 148.791 60.5996C148.791 60.5996 148.791 60.5896 148.801 60.5796C148.971 60.3096 149.101 60.0396 149.201 59.7496C149.311 59.4496 149.411 59.1496 149.481 58.8296C149.691 57.9296 149.771 56.9396 149.941 55.9196C163.761 68.4896 174.151 52.4696 186.261 50.4196C187.421 50.1196 188.841 50.7296 190.101 51.5296H190.111C194.131 54.7096 197.951 58.0196 201.041 61.7196C201.721 62.1996 202.401 62.1796 203.091 61.1796L203.661 64.8996V53.2796C206.991 50.7196 211.751 54.4096 211.801 58.1796V58.1996Z" fill="#F4D3AE"/>
<path d="M5.92 63.5796C5.64 63.5796 5.44 63.5496 5.31 63.4796C5.18 63.4096 5.03 63.2996 4.85 63.1396C4.35 62.6996 4.11 62.4596 4.11 62.3996C4.11 62.3396 4.09 62.2896 4.05 62.2396C4.01 62.1896 3.97 62.1396 3.93 62.0796C3.73 61.7796 3.61 61.5596 3.57 61.4296L3.33 60.9496C3.33 60.9496 3.2 60.7196 3.06 60.2496C2.92 59.7796 2.82 59.5196 2.76 59.4496C2.7 59.3796 2.6 59.0296 2.46 58.3896C2.28 57.6796 2.18 57.3096 2.16 57.2896C2.14 57.2696 2.1 57.0596 2.03 56.6696C1.96 56.2696 1.88 55.8096 1.78 55.2696C1.74 55.0896 1.71 54.9396 1.69 54.8096C1.67 54.6796 1.65 54.6096 1.63 54.5896C1.61 54.5696 1.58 54.3696 1.53 53.9796C1.48 53.5896 1.42 53.1396 1.35 52.6296C1.28 52.1096 1.22 51.6396 1.17 51.1996C1.12 50.7596 1.08 50.5496 1.04 50.5496C1.02 50.5096 1 50.3896 0.98 50.1896C0.92 49.7896 0.85 49.0996 0.77 48.1096L0.56 45.7296C0.56 45.5696 0.55 45.4896 0.52 45.4896C0.49 45.4896 0.43 44.8296 0.34 43.4996C0.25 42.1696 0.17 40.6596 0.09 38.9496C0.03 37.7196 0 35.3396 0 31.8196C0 30.5696 0.01 29.7196 0.04 29.2796C0.07 28.8296 0.11 28.4296 0.17 28.0796C0.29 27.3696 0.52 27.0096 0.85 27.0096C0.95 27.0096 1.09 27.0296 1.27 27.0796C1.45 27.1296 1.62 27.1896 1.79 27.2696C1.96 27.3496 2.08 27.4196 2.15 27.4896C2.22 27.5596 2.27 27.5896 2.31 27.5896C2.39 27.5096 2.44 27.4696 2.46 27.4696C2.5 27.4696 2.53 27.4996 2.56 27.5596C2.59 27.6196 2.61 27.6696 2.63 27.7096V27.6496C2.63 27.6496 2.7 27.5896 2.78 27.5896C2.98 27.5896 3.13 27.6496 3.23 27.7696L3.26 27.6796C3.26 27.6796 3.3 27.6196 3.38 27.6196C3.46 27.6196 3.55 27.5696 3.65 27.4696C3.71 27.4696 3.76 27.5296 3.81 27.6596C3.86 27.7896 3.91 27.8496 3.96 27.8496C4.01 27.8496 4.07 28.2496 4.15 29.0396C4.19 29.4396 4.21 30.9796 4.21 33.6796C4.23 35.6796 4.26 37.3396 4.31 38.6396C4.36 39.9396 4.4 40.6396 4.44 40.7196C4.48 40.7196 4.5 40.8196 4.5 41.0196C4.5 41.4396 4.58 42.6096 4.75 44.5396C4.92 46.4696 5.01 47.4496 5.03 47.4796C5.05 47.5096 5.07 47.5596 5.09 47.6396C5.11 47.9396 5.16 48.3596 5.24 48.9196C5.28 49.3196 5.32 49.7196 5.37 50.1196C5.42 50.5296 5.46 50.8596 5.5 51.1296C5.54 51.3996 5.57 51.5396 5.59 51.5496C5.61 51.5596 5.62 51.6596 5.62 51.8596L5.86 53.4096C6.02 54.5196 6.11 55.0896 6.14 55.1196C6.17 55.1496 6.19 55.1796 6.21 55.2196L6.42 56.2896C6.5 56.6496 6.57 56.9596 6.63 57.2296C6.69 57.4996 6.73 57.6396 6.76 57.6496C6.79 57.6596 6.8 57.6896 6.8 57.7496C6.8 57.8096 6.83 57.9196 6.89 58.0796C7.05 58.5996 7.15 58.9296 7.2 59.0796C7.25 59.2296 7.28 59.3096 7.29 59.3196C7.29 59.3296 7.31 59.3496 7.33 59.3896C7.39 59.5496 7.43 59.6596 7.45 59.7196C7.47 59.7796 7.49 59.8096 7.51 59.8096L7.69 59.3596C7.79 59.0596 7.85 58.8996 7.88 58.8796C7.91 58.8596 7.99 58.6196 8.13 58.1496C8.27 57.6796 8.34 57.4196 8.34 57.3496C8.34 57.2796 8.36 57.2496 8.4 57.2496C8.44 57.2496 8.48 57.1596 8.52 56.9696C8.56 56.7796 8.62 56.5396 8.7 56.2396C8.86 55.5696 8.97 55.1996 9.03 55.1396L9.3 54.0696C9.44 53.3596 9.52 52.9996 9.55 52.9896C9.58 52.9896 9.61 52.9096 9.65 52.7696L9.86 51.7596C10 50.9496 10.1 50.5396 10.16 50.5396L10.43 49.3496C10.57 48.5796 10.65 48.1896 10.68 48.1796C10.71 48.1796 10.74 48.0696 10.78 47.8696L11.11 46.3796C11.19 45.8996 11.25 45.6596 11.29 45.6396C11.33 45.6196 11.42 45.2796 11.56 44.6096C11.7 43.9496 11.78 43.5996 11.81 43.5796C11.84 43.5596 11.88 43.4496 11.94 43.2496C12.06 42.7296 12.12 42.4696 12.12 42.4496C12.12 42.4296 12.22 42.0396 12.42 41.2896C12.46 41.2496 12.55 40.9296 12.69 40.3396C12.77 40.0596 12.83 39.8296 12.88 39.6596C12.93 39.4896 12.96 39.3896 12.98 39.3796C13 39.3796 13.13 38.9096 13.37 37.9996C13.39 37.8796 13.43 37.7396 13.49 37.5796L13.55 37.3396C13.61 37.2796 13.71 36.9396 13.85 36.3296L14.15 35.3196C14.15 35.3196 14.19 35.2496 14.21 35.1696C14.23 35.0896 14.26 34.9996 14.3 34.8996C14.38 34.6396 14.44 34.4096 14.48 34.2196C14.6 33.6996 14.67 33.4496 14.7 33.4496C14.73 33.4496 14.75 33.4196 14.77 33.3596C14.79 33.2396 14.87 32.9296 15.01 32.4396C15.15 31.8696 15.24 31.5596 15.28 31.5296C15.32 31.4996 15.34 31.4796 15.34 31.4696C15.34 31.4696 15.34 31.4196 15.36 31.3396C15.36 31.2596 15.44 30.9796 15.58 30.4896C15.72 29.9996 15.8 29.7496 15.83 29.7296C15.86 29.7096 15.87 29.6996 15.87 29.6896C15.87 29.6896 15.87 29.6396 15.89 29.5696C15.89 29.4996 15.99 29.1896 16.17 28.6296C16.23 28.4096 16.28 28.2096 16.33 28.0396C16.38 27.8696 16.41 27.7596 16.42 27.7396C16.42 27.7196 16.45 27.6696 16.49 27.5896L16.7 26.8796C16.84 26.3096 16.92 26.0096 16.95 25.9996C16.98 25.9896 17.01 25.9196 17.05 25.7796C17.09 25.6396 17.15 25.4596 17.23 25.2396C17.23 25.1996 17.27 25.0296 17.36 24.7196C17.45 24.4096 17.51 24.2496 17.55 24.2296C17.59 24.2096 17.68 23.9396 17.82 23.4096C17.96 22.8896 18.05 22.6096 18.09 22.5896C18.13 22.5696 18.19 22.4096 18.27 22.1096L18.69 20.8896C18.77 20.8096 18.86 20.6096 18.96 20.2796C19.06 19.9496 19.14 19.7296 19.2 19.6096C19.24 19.5896 19.28 19.5396 19.32 19.4596C19.48 19.0796 19.72 18.7396 20.03 18.4196C20.11 18.3396 20.24 18.2696 20.43 18.1996C20.62 18.1296 20.82 18.0996 21.04 18.0996C21.16 18.0996 21.3 18.1196 21.47 18.1596C21.64 18.1996 21.77 18.3396 21.87 18.5796C21.95 18.7396 21.99 18.9096 21.99 19.0796C21.99 19.4596 21.96 19.8596 21.9 20.2996C21.76 21.0896 21.65 21.5296 21.57 21.6096C21.53 21.6096 21.39 22.1596 21.15 23.2696C21.13 23.3896 21.11 23.4896 21.08 23.5796C21.05 23.6696 21.03 23.7396 21.02 23.7996C21.01 23.8596 21 23.8896 20.98 23.8996C20.96 23.9096 20.93 24.0096 20.89 24.1996C20.85 24.3896 20.79 24.6296 20.71 24.9296C20.71 25.1096 20.62 25.4596 20.44 25.9996C20.4 26.1796 20.37 26.2796 20.35 26.3096C20.33 26.3396 20.25 26.6896 20.11 27.3696L19.84 28.4696C19.78 28.4696 19.61 29.1696 19.33 30.5796C19.29 30.7996 19.26 30.9096 19.24 30.9196C19.22 30.9296 19.2 30.9596 19.18 31.0196C19.1 31.3196 19.03 31.6196 18.97 31.9396C18.81 32.6896 18.72 33.0696 18.7 33.0796C18.68 33.0896 18.65 33.1496 18.61 33.2696C18.39 34.1796 18.24 34.8996 18.16 35.4096C18.12 35.5696 18.09 35.6596 18.06 35.6796C18.03 35.6996 17.95 36.0696 17.81 36.7996C17.67 37.5196 17.59 37.8996 17.56 37.9096C17.53 37.9296 17.51 37.9696 17.5 38.0396C17.49 38.1096 17.47 38.1896 17.46 38.2896L17.07 40.1296L16.95 40.5796C16.95 40.5796 16.82 40.9496 16.68 41.6896C16.54 42.4296 16.46 42.8196 16.43 42.8296C16.4 42.8496 16.37 42.9596 16.34 43.1596C16.31 43.3596 16.24 43.6696 16.12 44.0796L15.91 45.0896C15.87 45.2296 15.84 45.2996 15.81 45.3096C15.78 45.3196 15.7 45.6596 15.57 46.3196C15.44 46.9796 15.35 47.3496 15.29 47.3996C15.23 47.4596 15.12 47.8696 14.96 48.6196C14.8 49.3696 14.7 49.7696 14.66 49.8096L14.15 51.8296C14.09 51.8896 13.99 52.2696 13.85 52.9596L13.61 53.8496C13.57 53.9696 13.55 54.0296 13.54 54.0396C13.53 54.0496 13.48 54.2396 13.38 54.6196C13.16 55.4696 13.01 55.9396 12.93 56.0196C12.93 56.0596 12.84 56.3296 12.66 56.8196C12.52 57.3496 12.44 57.6296 12.42 57.6396C12.4 57.6496 12.37 57.6796 12.33 57.7396L12.12 58.3896C11.98 58.8696 11.88 59.1296 11.82 59.1896C11.76 59.2496 11.71 59.3396 11.67 59.4596C11.67 59.4996 11.66 59.5296 11.64 59.5496C11.48 60.0496 11.35 60.3396 11.25 60.4396L10.98 60.9796C10.74 61.5096 10.33 62.0396 9.73 62.5596C9.65 62.6396 9.43 62.7496 9.08 62.8896L9.02 62.9196C8.6 63.0596 8.33 63.1296 8.2 63.1296C8.07 63.1296 7.98 63.1596 7.93 63.1996C7.88 63.2496 7.74 63.2896 7.5 63.3296C6.85 63.4696 6.29 63.5396 5.84 63.5396L5.92 63.5796Z" fill="#F4D3AE"/>
<path d="M31.6689 60.2201C31.4289 60.2201 31.2189 60.1901 31.0489 60.1301C30.6089 59.9701 30.1089 59.7101 29.5289 59.3601C29.1689 59.1401 28.9089 58.8901 28.7289 58.6201C28.1689 57.8301 27.8989 56.2801 27.8989 53.9801L27.8689 52.3801C26.9589 54.1801 26.2989 55.4001 25.9089 56.0401C25.0789 57.3701 24.3289 58.0301 23.6789 58.0301C23.4389 58.0301 23.1889 57.9601 22.9389 57.8201C21.7489 57.2301 21.0289 56.6701 20.7689 56.1401C20.5089 55.6201 20.3789 54.9101 20.3789 54.0101C20.3789 52.3701 20.8289 50.3601 21.7189 48.0101C22.1589 46.8801 22.6089 45.8901 23.0889 45.0401C24.1389 43.1801 25.3889 41.9601 26.8389 41.3801C27.2989 41.1801 27.6689 41.0801 27.9689 41.0801C28.3889 41.0801 28.7489 41.3201 29.0689 41.7901C29.2489 42.0301 29.3789 42.1601 29.4689 42.1901C29.5589 42.2201 29.6189 42.2501 29.6589 42.2801C29.6989 42.3101 29.7189 42.4401 29.7189 42.6801C29.7189 42.9601 29.6889 43.1101 29.6189 43.1401C29.5489 43.1701 29.4989 43.1801 29.4589 43.1801C29.3589 43.1801 29.2689 43.0901 29.1889 42.9001C29.1089 42.7101 29.0489 42.6101 29.0089 42.5901C28.9689 42.5901 28.8789 42.6401 28.7389 42.7401C28.4389 42.9801 28.1289 43.2701 27.7889 43.6001C26.4989 44.9301 25.3389 47.1101 24.3089 50.1401C23.7589 51.7701 23.4189 53.1701 23.2989 54.3601L23.2689 54.8101C23.2689 54.8101 23.4289 54.6601 23.6289 54.3601C24.6789 52.7701 25.9689 50.5701 27.4889 47.7601C28.3989 46.1701 29.0289 45.1501 29.3589 44.7001C29.4589 44.6201 29.5389 44.5801 29.5989 44.5801C29.6589 44.5801 29.7389 44.6301 29.8389 44.7301C30.1589 45.0301 30.3189 45.2301 30.3189 45.3401C30.3189 45.4501 30.3189 45.5001 30.3489 45.5001L30.4989 45.4401C30.4989 45.4401 30.5889 45.4801 30.6489 45.5701C30.7089 45.6601 30.7489 45.7001 30.7789 45.7001C30.8089 45.7001 30.8589 45.7301 30.9289 45.8001C30.9989 45.8701 31.0889 45.9001 31.2089 45.9001C31.3289 45.9001 31.4089 45.9301 31.4489 45.9701C31.4889 46.0201 31.5089 46.0901 31.5089 46.1901C31.5089 46.5501 31.4089 47.3501 31.2089 48.6001C30.8689 50.7601 30.6989 52.6601 30.6989 54.3101C30.6989 54.9801 30.7389 55.7401 30.8189 56.5801C30.8989 57.4201 30.9589 57.8701 30.9989 57.9301C31.0989 57.9301 31.4389 57.6101 32.0089 56.9801C32.7589 56.1701 33.6089 55.0201 34.5389 53.5301C35.2289 52.3801 35.7789 51.3801 36.1689 50.5301C36.4089 50.0101 36.6289 49.7001 36.8189 49.5801C36.8589 49.5801 36.9089 49.6001 36.9689 49.6401C37.0289 49.6801 37.0789 49.7301 37.1289 49.7901C37.1789 49.8501 37.1989 49.9201 37.1989 50.0001C37.1989 50.2601 37.0489 50.8301 36.7389 51.7101C36.4289 52.5901 35.8789 53.9901 35.0889 55.9201C34.7489 56.7301 34.4889 57.3401 34.2889 57.7501C34.0889 58.1601 33.8889 58.5001 33.6989 58.7901C33.4989 59.0801 33.2789 59.3401 33.0489 59.5801C32.8089 59.8201 32.5889 59.9801 32.3989 60.0701C32.1989 60.1601 31.9589 60.2001 31.6889 60.2001L31.6689 60.2201Z" fill="#F4D3AE"/>
<path d="M56.3484 59.9089C56.1584 59.9089 55.9784 59.9289 55.7884 59.9089C55.0184 59.8489 54.2684 59.2389 54.0584 58.4989C53.9884 58.2489 53.9684 57.9889 53.9584 57.7189C53.9184 55.4589 53.7584 53.0489 53.4784 50.4989C53.0584 46.5389 52.8584 43.2289 52.8584 40.5689C52.8584 33.9289 52.6484 28.7689 52.2384 25.0789C52.1784 24.5989 52.1484 24.2689 52.1484 24.0689C52.1484 23.8689 52.1784 23.7689 52.2384 23.7689C52.4184 23.7689 52.6384 23.8989 52.8884 24.1589C52.9084 24.1989 52.9684 24.2489 53.0684 24.3089C53.3084 24.4489 53.5484 24.5389 53.7784 24.5789C53.8984 24.5789 54.0384 24.7589 54.2084 25.1089C54.3784 25.4689 54.5284 25.9289 54.6684 26.5089C54.8684 27.3989 55.0984 28.8989 55.3684 30.9989C55.6384 33.0989 55.8884 35.4389 56.1284 38.0189L56.3684 40.5189L56.6984 39.3289C57.8084 35.1489 59.2984 31.3889 61.1584 28.0589C62.8584 24.9489 64.4684 22.6389 65.9784 21.1289C67.1084 19.9589 68.0384 19.3789 68.7684 19.3789H69.0684C69.3084 19.3789 69.5184 19.4389 69.7084 19.5589C69.8984 19.6789 70.1884 19.9289 70.5884 20.2989C70.8884 20.5989 71.1184 20.8089 71.2684 20.9189C71.5084 21.1389 71.7384 21.2689 71.9484 21.3089C72.5984 21.4489 73.0484 22.0689 73.2884 23.1789C73.3684 23.6589 73.4084 24.2889 73.4084 25.0789C73.4084 26.2489 73.2784 27.4989 73.0184 28.8289C72.4984 31.4489 71.6384 33.8289 70.4284 35.9889L70.0084 36.7889C70.0084 36.8489 70.0984 36.9289 70.2884 37.0289C70.4784 37.1289 70.6784 37.2089 70.8984 37.2689C71.9484 37.5289 72.9984 38.2789 74.0484 39.5289C75.9484 41.7289 76.8984 44.6189 76.8984 48.2089C76.8984 49.4389 76.8584 50.3089 76.7784 50.8289C76.2984 54.1989 75.1584 57.0089 73.3584 59.2689C72.8584 59.8989 72.2784 60.5389 71.6084 61.1689C70.9384 61.7989 70.2884 62.3289 69.6784 62.7489C68.6884 63.3389 67.7384 63.8089 66.8284 64.1489C66.0384 64.4089 65.2084 64.5389 64.3284 64.5389C63.9484 64.5389 63.5684 64.5189 63.1684 64.4789C61.9784 64.3589 61.0784 64.1689 60.4684 63.8989C59.8584 63.6289 59.3884 63.2289 59.0684 62.6989C58.6084 61.9689 58.3884 61.2189 58.3884 60.4689C58.3884 59.2989 59.0484 57.6489 60.3784 55.5089C61.4884 53.7089 62.7984 52.0089 64.2984 50.4289C65.8684 48.8389 67.0584 48.0389 67.8984 48.0189L68.1684 47.9889C68.3884 47.9889 68.5384 48.0189 68.6284 48.0889C68.7184 48.1589 68.7584 48.2089 68.7584 48.2489C68.7584 48.4889 68.3984 48.9889 67.6884 49.7689C66.4184 51.1389 65.2984 52.6689 64.3284 54.3789C62.9384 56.7789 62.2484 58.7189 62.2484 60.2089C62.2484 60.4489 62.2584 60.6689 62.2784 60.8589C62.3384 61.5889 62.5984 62.2089 63.0484 62.6989C63.2684 62.9189 63.4084 63.0289 63.4684 63.0289C63.6084 63.0289 64.0384 62.8589 64.7484 62.5189C66.6284 61.6089 68.2784 60.1989 69.6784 58.2989C70.3084 57.4489 70.8584 56.5689 71.3084 55.6489C71.9384 54.2989 72.4284 52.8289 72.7784 51.2189C73.1284 49.6189 73.2984 48.0789 73.2984 46.6089C73.2984 45.2789 73.1484 44.0789 72.8484 43.0089C72.3484 41.2889 71.5984 39.8189 70.5884 38.6089C70.2684 38.2089 70.0584 37.9989 69.9384 37.9689C69.8184 37.9389 69.5784 37.9289 69.2284 37.9289L68.8384 38.4389C67.2884 40.5789 65.7884 42.0189 64.3184 42.7489C63.8584 42.9689 63.4684 43.0789 63.1284 43.0789L62.8884 43.0489C62.4284 42.9489 62.1284 42.8189 61.9684 42.6589C61.9484 42.5989 61.9084 42.5689 61.8384 42.5689C61.7684 42.5689 61.6384 42.4989 61.4384 42.3589C60.9184 42.0589 60.6284 41.8389 60.5484 41.7089C60.4684 41.5689 60.4284 41.4289 60.4284 41.2889C60.4284 40.8289 60.6784 40.2389 61.1684 39.5089C62.3184 37.8489 63.8184 36.7189 65.6584 36.1189L66.1684 35.9389C66.8184 34.7689 67.2984 33.8589 67.5984 33.2089C68.9084 30.3189 69.7084 27.7589 70.0084 25.5389C70.1084 24.7489 70.1584 23.9089 70.1584 23.0089C70.1584 22.7289 70.1484 22.5689 70.1284 22.5289C70.1084 22.4889 70.0884 22.4689 70.0684 22.4689C70.0084 22.4689 69.8684 22.5489 69.6484 22.7089C67.2084 24.5889 64.7584 28.5889 62.3084 34.6889C60.6284 39.0289 59.3984 43.9989 58.6184 49.6089C58.4384 50.9389 58.3184 52.0989 58.2584 53.0989C58.2284 53.6089 58.2184 54.1189 58.2084 54.6289C58.1884 55.4389 58.1884 56.2389 58.1784 57.0489C58.1784 57.8089 58.1784 58.5689 58.1784 59.3289C58.1784 59.3589 58.1784 59.3789 58.1684 59.4089C58.1684 59.4289 58.1484 59.4389 58.1384 59.4589C57.7184 59.8989 57.0784 59.8789 56.5084 59.9089C56.4584 59.9089 56.3984 59.9089 56.3484 59.9089Z" fill="#F4D3AE"/>
<path d="M86.4709 60.0402C83.3109 60.0702 81.7409 58.7602 81.0609 56.4402C80.3809 54.1102 80.8709 50.0702 81.6509 48.0002C82.1309 46.0602 85.4209 38.3802 87.9809 41.1602C88.3209 41.5102 88.1509 41.3002 88.5209 41.5802C89.1109 42.1102 89.8609 41.7702 90.0709 42.6802C90.8309 46.4802 88.4709 53.2902 84.3909 54.0102C84.4909 55.6102 84.5609 57.9502 86.0809 58.7402C86.9309 58.5802 87.3509 58.2902 88.0109 57.9402C89.3509 57.2102 90.8809 55.7202 91.5909 54.6502C92.8809 52.9202 94.7709 48.7802 95.6509 49.7302C94.4709 53.3702 91.4609 60.3202 86.4609 60.0402H86.4709ZM84.6609 50.6202C85.4109 49.4202 86.2509 48.5402 86.8809 46.9502C87.1809 46.1302 87.1209 45.4802 87.2509 44.7302C87.2809 44.6402 87.3309 44.1602 87.3109 44.0202C87.1009 43.9502 86.4609 44.3302 86.2309 44.7002C86.0009 44.9602 85.6709 45.6702 85.5309 45.9802C85.0809 47.0002 84.8609 49.4302 84.6709 50.6202H84.6609Z" fill="#F4D3AE"/>
<path d="M121.111 54.6402C120.401 55.7102 118.881 57.2002 117.531 57.9202C116.881 58.2702 116.451 58.5602 115.601 58.7202C114.081 57.9302 114.001 55.6002 113.911 54.0002C117.991 53.2802 120.351 46.4802 119.591 42.6702C119.381 41.7702 118.641 42.1002 118.041 41.5702C117.681 41.2902 117.851 41.5002 117.511 41.1602C114.951 38.3802 111.661 46.0602 111.181 48.0002C110.391 50.0702 109.901 54.1202 110.591 56.4402C111.271 58.7602 112.851 60.0702 116.001 60.0402C120.991 60.3102 124.001 53.3602 125.191 49.7202C124.321 48.7702 122.421 52.9002 121.131 54.6402H121.111ZM115.031 45.9802C115.171 45.6702 115.501 44.9602 115.731 44.7002C115.971 44.3302 116.611 43.9402 116.821 44.0202C116.841 44.1602 116.781 44.6402 116.751 44.7302C116.621 45.4802 116.691 46.1302 116.381 46.9502C115.751 48.5402 114.911 49.4302 114.161 50.6202C114.361 49.4302 114.571 47.0002 115.021 45.9802H115.031Z" fill="#F4D3AE"/>
<path d="M107.289 61.7305C107.169 61.7305 106.979 61.6905 106.709 61.6105C106.439 61.5305 106.219 61.4405 106.039 61.3405C105.519 61.0405 105.099 60.3905 104.759 59.3805C104.359 58.2905 104.029 56.2605 103.749 53.2905C103.689 52.7205 103.639 51.9805 103.599 51.0905C103.599 48.3605 103.629 46.5105 103.689 45.5605L103.449 45.8905C102.679 46.9205 101.939 48.3705 101.249 50.2305C100.239 53.0005 99.3187 55.9905 98.4887 59.1805L98.0387 60.9005C97.8787 61.4005 97.6087 61.6405 97.2387 61.6405C97.1587 61.6405 97.1087 61.6405 97.0887 61.6105C97.0687 61.5905 97.0387 61.5805 96.9987 61.5705C96.9587 61.5705 96.9087 61.5605 96.8387 61.5605C96.7687 61.5605 96.7187 61.5405 96.6787 61.4905C96.6387 61.4405 96.6087 61.4105 96.5887 61.4005C96.5687 61.4005 96.5487 61.3905 96.5287 61.3905C96.5087 61.3905 96.4588 61.3705 96.3688 61.3305C96.2788 61.2905 96.1387 61.2405 95.9487 61.1705C95.7587 61.1005 95.6288 61.0105 95.5488 60.8905C95.4688 60.7705 95.3987 60.5605 95.3387 60.2705C95.2587 59.8305 95.2188 58.8905 95.2188 57.4505C95.2188 55.3905 95.3587 52.9505 95.6387 50.1405C95.7787 48.7305 95.9788 47.2605 96.2288 45.7105C96.3888 44.7605 96.5087 44.1105 96.5987 43.7805C96.6887 43.4405 96.7787 43.2705 96.8787 43.2705C96.8987 43.2705 96.9788 43.3305 97.1188 43.4505C97.2588 43.5705 97.4087 43.6805 97.5687 43.7805C97.7087 43.9205 97.7787 44.0005 97.7787 44.0305C97.7787 44.0605 97.8487 44.1205 97.9887 44.2205L98.2288 44.2505C98.2288 44.2505 98.2588 44.2605 98.2588 44.2805C98.2588 44.3005 98.2687 44.3105 98.2887 44.3105H98.3187C98.3187 44.3105 98.3887 44.3105 98.4187 44.3305C98.4487 44.3405 98.4887 44.3705 98.5387 44.4305C98.5887 44.4905 98.6287 44.5905 98.6687 44.7305C98.7087 44.8705 98.7388 45.0905 98.7588 45.3805C98.7788 45.6805 98.7888 46.1005 98.7988 46.6605C98.7988 47.2105 98.8187 47.7705 98.8187 48.3205C99.6087 46.7305 100.439 45.3805 101.289 44.2505C102.319 42.9005 103.049 42.2305 103.489 42.2305C103.589 42.2305 103.699 42.2705 103.829 42.3605C103.959 42.4505 104.139 42.5905 104.379 42.7905C104.969 43.3405 105.409 43.6205 105.669 43.6205C105.929 43.6205 106.119 43.8105 106.219 44.2005C106.319 44.5905 106.369 45.2805 106.369 46.3005C106.369 47.1105 106.339 48.0405 106.279 49.0905C106.199 50.4405 106.159 52.2105 106.159 54.4105C106.159 55.8805 106.189 56.9805 106.249 57.7105C106.429 59.6305 106.739 60.7705 107.169 61.1305C107.389 61.3505 107.519 61.4705 107.559 61.4905C107.599 61.5105 107.619 61.5405 107.619 61.5805C107.619 61.6205 107.589 61.6605 107.529 61.7005C107.469 61.7405 107.389 61.7605 107.289 61.7605V61.7305Z" fill="#F4D3AE"/>
<path d="M202.3 27.5898L202.28 29.3598L210.57 29.3898C196.55 33.7198 189.41 33.9298 184.49 32.9698C183.58 32.7898 182.74 32.5698 181.95 32.3298C178.82 31.4098 176.58 30.5298 175.4 30.1298C173.39 29.9898 169.72 35.2998 169.72 35.2998L169.78 39.0698C169.84 42.4498 168.68 45.7798 166.38 48.2598C159.59 55.5698 153.64 45.5698 147.16 46.5798C150.39 57.5498 170.41 61.6498 186.12 42.6798L186.65 42.1098H180.42C181.49 42.1098 184.9 41.6898 187.33 41.3598H187.34L189.78 41.0298C189.82 41.0298 189.86 41.0298 189.89 41.0198H189.98L195.58 40.2698C206.76 38.6998 216 35.1998 223.74 29.4198H230.68V27.5998H202.29L202.3 27.5898Z" fill="#F4D3AE"/>
<path d="M170.81 29.4498C170.43 29.4498 171.22 29.4398 170.81 29.4498V29.4498Z" fill="#E52A17"/>
<path d="M181.961 32.3202C178.831 31.4002 176.591 30.5202 175.411 30.1202C173.401 29.9802 169.731 35.2902 169.731 35.2902C168.451 31.9902 171.721 27.4802 171.721 27.4802C171.721 27.4802 172.891 26.0402 174.121 25.5502C174.441 25.3802 174.581 25.5502 174.581 25.5502C175.831 28.3002 178.271 29.2102 178.271 29.2102C181.751 31.5802 181.961 32.2702 181.971 32.3202H181.961Z" fill="#E52A17"/>
<path fill-rule="evenodd" clip-rule="evenodd" d="M184.16 32.1596L184.5 32.9696C184.5 32.9696 186.22 33.3196 187.81 33.3896C187.81 33.3896 186.05 31.3196 184.16 32.1596Z" fill="#E52A17"/>
<path fill-rule="evenodd" clip-rule="evenodd" d="M183.939 32.8495C183.939 32.8495 183.759 31.2595 182.219 31.4195L182.819 32.5795L183.939 32.8495Z" fill="#E52A17"/>
</g>
<defs>
<clipPath id="clip0_1593_42736">
<rect width="230.69" height="78.52" fill="white" transform="translate(0 0.740234)"/>
</clipPath>
</defs>
</svg>
